:SAMPLES-PER-SECOND 30
:FULLY-SPECIFIED
:DEGREES
626
root  32.3014 34.3747 15.6063 5.49173 18.3629 -1.80391
LeftUpLeg  -11.8853 4.40359 6.06836
LeftLeg  17.5766 -3.45536 -0.856261
LeftFoot  -1.56354 0.00204954 0.150192
LeftToes  -21.025 2.60077e-006 -1.42232e-007
Spine  4.736 1.2019 0.972425
Spine1  9.18729 2.65316 1.55128
RightShoulder  0.0908837 2.53004 4.67262
RightArm  31.61 19.1651 72.7719
RightForeArm  49.7754 62.6815 20.0444
RightHand  -0.00618335 0.0811741 -9.075
LeftShoulder1  0.0417974 -2.95238 -6.94938
LeftArm  -19.0641 11.3625 -62.9011
LeftForeArm  34.6215 -15.4848 -2.79023
LeftHand  -0.00411828 3.25354 -0.513856
HEad  -15.6428 -2.24584 -4.52731
RightUpLeg  -25.5688 -2.27506 -0.798914
RightLeg  17.4838 11.2989 2.75753
RightFoot  7.90258 -0.0932278 1.72704
RightToes  -33.6124 -0.169571 -0.276272
627
root  32.2677 34.4344 15.2305 5.50768 15.137 -1.99316
LeftUpLeg  -11.114 6.00979 6.00854
LeftLeg  15.8036 -1.99375 -0.429966
LeftFoot  -0.589706 0.000344272 0.0668886
LeftToes  -20.5874 2.60077e-006 -1.42232e-007
Spine  4.48008 0.983343 1.06623
Spine1  8.69482 2.09617 1.93824
RightShoulder  0.0807469 2.67264 4.51627
RightArm  35.7514 15.9238 71.9241
RightForeArm  45.8849 60.6531 18.3498
RightHand  0.0274599 -0.631926 -4.55897
LeftShoulder1  0.0512162 -2.78692 -7.2145
LeftArm  -20.8796 10.3675 -61.5502
LeftForeArm  35.3929 -14.3484 -2.57541
LeftHand  0.0426214 3.36793 1.07749
HEad  -15.3089 3.13622 -7.39361
RightUpLeg  -24.9433 -0.900168 -2.38023
RightLeg  19.4949 7.07157 1.99653
RightFoot  7.43878 -0.044204 1.05743
RightToes  -34.3153 -0.174737 -0.280811
628
root  32.1864 34.4402 14.9533 5.47577 12.5955 -1.72495
LeftUpLeg  -10.1322 6.52149 5.71959
LeftLeg  13.9679 -0.165171 -0.0315998
LeftFoot  0.338217 0.00071584 0.0394447
LeftToes  -20.5056 2.60077e-006 -1.42232e-007
Spine  4.29867 0.784646 1.02355
Spine1  8.31798 1.58503 2.06863
RightShoulder  0.073045 3.07777 4.2518
RightArm  37.122 11.6621 70.8283
RightForeArm  43.349 56.7027 15.6207
RightHand  0.0199183 -1.22216 -1.48932
LeftShoulder1  0.0665757 -2.83834 -7.18243
LeftArm  -23.7055 9.00275 -60.462
LeftForeArm  36.2731 -13.3629 -2.39074
LeftHand  0.0797718 3.41025 2.30458
HEad  -15.3047 7.82412 -9.90099
RightUpLeg  -24.268 -0.745587 -4.43343
RightLeg  22.6945 4.44518 1.52717
RightFoot  5.45082 -0.00833121 0.55249
RightToes  -33.8113 -0.171028 -0.277564
629
root  32.0591 34.3939 14.7527 5.37922 10.5488 -1.22905
LeftUpLeg  -9.16322 6.19825 5.37716
LeftLeg  12.4519 1.91917 0.294577
LeftFoot  1.00769 -0.000102099 0.0691853
LeftToes  -20.6627 2.60077e-006 -1.42232e-007
Spine  4.1937 0.614824 0.910374
Spine1  8.07308 1.12832 2.07552
RightShoulder  0.0661286 3.51528 4.14453
RightArm  33.832 6.37321 70.181
RightForeArm  42.579 50.0856 12.1856
RightHand  0.000906647 -0.239153 -0.0626683
LeftShoulder1  0.0818743 -2.64697 -7.54913
LeftArm  -25.576 7.29874 -59.0614
LeftForeArm  36.3205 -13.1986 -2.3602
LeftHand  0.101687 3.62009 2.84151
HEad  -16.0746 11.8168 -11.9331
RightUpLeg  -23.3038 -1.38554 -6.70664
RightLeg  25.9775 2.436 0.993296
RightFoot  3.1638 0.00327302 0.258974
RightToes  -31.8591 -0.15693 -0.264677
630
root  31.8729 34.3261 14.5937 5.55136 8.68078 -0.760371
LeftUpLeg  -8.75555 6.34648 5.14328
LeftLeg  11.5241 3.45805 0.474662
LeftFoot  1.41213 -0.00138904 0.112703
LeftToes  -20.9195 2.60077e-006 -1.42232e-007
Spine  4.01864 0.639931 0.746845
Spine1  7.69033 1.06941 1.98184
RightShoulder  0.0592132 3.82745 4.78082
RightArm  23.9064 0.5244 70.0504
RightForeArm  42.8281 40.7684 8.73825
RightHand  -0.00474067 0.438752 -0.881324
LeftShoulder1  0.0919267 -2.33424 -7.94901
LeftArm  -26.6225 5.28582 -57.776
LeftForeArm  35.8692 -13.4735 -2.41166
LeftHand  0.108011 3.35881 3.30586
HEad  -17.2905 14.9101 -13.6346
RightUpLeg  -22.2357 -2.88707 -8.78504
RightLeg  28.2344 0.584033 0.259683
RightFoot  2.65887 0.00543756 0.143205
RightToes  -31.3703 -0.15347 -0.261376
631
root  31.6104 34.2716 14.4454 5.99442 7.25918 -0.17004
LeftUpLeg  -9.08474 6.86439 4.8604
LeftLeg  11.3072 4.32925 0.577725
LeftFoot  1.83457 -0.00249135 0.155593
LeftToes  -21.0896 2.60077e-006 -1.42232e-007
Spine  3.73346 0.662968 0.511182
Spine1  7.0965 1.02137 1.71099
RightShoulder  0.0507803 4.01239 5.63696
RightArm  5.73416 -4.32997 71.1078
RightForeArm  42.3219 28.5169 5.47994
RightHand  -0.00601027 0.146137 -4.54449
LeftShoulder1  0.0987737 -2.17518 -8.04372
LeftArm  -27.4143 3.55823 -56.8774
LeftForeArm  35.1293 -14.2236 -2.55226
LeftHand  0.101619 2.93983 3.58016
HEad  -18.2121 17.5425 -15.2221
RightUpLeg  -21.0923 -6.29706 -10.4689
RightLeg  29.446 -1.69432 -0.825609
RightFoot  2.66764 0.00842037 0.0159047
RightToes  -29.3548 -0.139503 -0.247457
632
root  31.2708 34.2088 14.3262 6.3133 5.99394 0.326485
LeftUpLeg  -9.76324 7.82396 4.84283
LeftLeg  12.0604 4.57615 0.67186
LeftFoot  2.0013 -0.000171296 0.157783
LeftToes  -21.6951 2.60077e-006 -1.42232e-007
Spine  3.45051 0.804378 0.371229
Spine1  6.49998 1.29957 1.4486
RightShoulder  0.0707013 5.07321 6.08144
RightArm  -20.9712 -8.46873 71.5425
RightForeArm  40.8121 18.7099 3.40745
RightHand  0.193655 -1.89667 -11.2499
LeftShoulder1  0.0980049 -2.07906 -7.89336
LeftArm  -27.6565 1.99687 -56.5411
LeftForeArm  34.1832 -15.175 -2.73198
LeftHand  0.10266 2.65405 4.04892
HEad  -18.8831 19.8299 -17.0745
RightUpLeg  -19.687 -12.4998 -11.3729
RightLeg  29.204 -3.71969 -1.78145
RightFoot  2.6689 0.0109014 -0.0904009
RightToes  -29.9587 -0.143636 -0.251679
